<svg width="121" height="120" viewBox="0 0 121 120" fill="none" xmlns="http://www.w3.org/2000/svg">
<path d="M58.8389 106C84.1243 106 104.624 85.5007 104.624 60.125C104.624 34.7493 84.034 14.25 58.8389 14.25C33.5535 14.25 13.0542 34.7493 13.0542 60.125C13.0542 85.5007 33.5535 106 58.8389 106Z" fill="url(#paint0_linear_20611_6862)"/>
<g filter="url(#filter0_dd_20611_6862)">
<path d="M72.121 35.7427L85.9377 85.4105C86.3892 87.1263 85.3959 88.8421 83.6801 89.2936L35.0056 102.207C33.2898 102.659 31.574 101.665 31.1225 99.9496L14.1451 35.833C13.6936 34.1172 14.687 32.4014 16.4028 31.9499L51.6218 22.6484L72.121 35.7427Z" fill="white"/>
</g>
<path d="M71.3932 67.1696L45.1144 74.1231L42.2247 74.8456L33.4651 77.1935C33.1038 77.2838 32.8329 77.7353 33.0135 78.1869C33.1038 78.6384 33.5554 78.9093 33.9166 78.819L42.6762 76.4711L45.566 75.7486L71.8447 68.7951C72.206 68.7048 72.4769 68.2533 72.2963 67.8018C72.206 67.3503 71.7544 67.0793 71.3932 67.1696Z" fill="#C1CDE6"/>
<path d="M69.6733 61.0277L59.9203 63.5562L56.5791 64.4593L31.9258 71.0516C31.5645 71.1419 31.2936 71.5934 31.4742 72.0449C31.5645 72.4965 32.0161 72.7674 32.3773 72.6771L57.1209 66.0848L60.4622 65.1817L70.2151 62.6532C70.5764 62.5629 70.8473 62.1114 70.6667 61.6598C70.486 61.2986 70.0345 60.9374 69.6733 61.0277Z" fill="#C1CDE6"/>
<path d="M68.2357 54.8007L65.7072 55.4328L63.1786 56.065L30.2173 64.8246C29.856 64.9149 29.5851 65.3664 29.7657 65.8179C29.856 66.2695 30.3076 66.5404 30.6688 66.4501L63.6302 57.6905L66.4296 56.968L68.6872 56.3359C69.0485 56.2456 69.3194 55.7941 69.1388 55.3425C69.0485 54.9813 68.6872 54.7104 68.2357 54.8007Z" fill="#C1CDE6"/>
<path d="M52.9673 86.7639L51.1612 87.2154C50.8 87.3057 50.3484 87.0348 50.2581 86.5833C50.1678 86.1318 50.3484 85.6802 50.7096 85.5899L52.5157 85.1384C52.877 85.0481 53.3285 85.319 53.4188 85.7705C53.5091 86.3124 53.3285 86.6736 52.9673 86.7639Z" fill="#C1CDE6"/>
<path d="M47.4557 88.2112L37.0706 90.9203C36.7094 91.0106 36.2578 90.7397 36.1675 90.2882C36.0772 89.8367 36.2578 89.3851 36.6191 89.2948L47.0042 86.5857C47.3654 86.4954 47.8169 86.7663 47.9072 87.2178C48.0878 87.6693 47.9072 88.1209 47.4557 88.2112Z" fill="#C1CDE6"/>
<path d="M66.9673 48.5648L58.7496 50.7321L56.7628 51.274L28.678 58.679C28.3167 58.7693 28.0458 59.2208 28.2264 59.6723C28.3167 60.1239 28.7683 60.3948 29.1295 60.3045L57.1241 52.9898L59.1108 52.4479L67.2382 50.2806C67.6898 50.1903 67.8704 49.7388 67.7801 49.197C67.7801 48.8357 67.3286 48.4745 66.9673 48.5648Z" fill="#C1CDE6"/>
<path d="M47.5436 34.9282L24.2448 41.069C23.703 41.2496 23.1612 40.8884 22.9806 40.3465C22.8 39.8047 23.1612 39.2629 23.703 39.0823L47.0017 32.9415C47.5436 32.7609 48.0854 33.1221 48.266 33.664C48.4466 34.2058 48.0854 34.7476 47.5436 34.9282Z" fill="#C1CDE6"/>
<path d="M34.7327 44.3208L25.7925 46.6687C25.2506 46.8493 24.7088 46.4881 24.5282 45.9463C24.3476 45.4045 24.7088 44.8626 25.2506 44.682L34.1005 42.3341C34.6424 42.1535 35.1842 42.5147 35.3648 43.0565C35.5454 43.5984 35.1842 44.1402 34.7327 44.3208Z" fill="#C1CDE6"/>
<path d="M51.6055 22.6484L55.2177 36.3748C55.7595 38.2712 57.8365 39.4452 59.7329 38.9034L72.1047 35.7427" fill="#C1CDE6"/>
<g filter="url(#filter1_dd_20611_6862)">
<path d="M108.597 49.7391L100.289 100.671C100.018 102.387 98.3019 103.561 96.5861 103.2L47.0989 94.5305C45.3831 94.2596 44.2091 92.5438 44.48 90.828L55.9488 25.5374C56.2197 23.8216 57.9355 22.6476 59.6513 23.0088L95.5927 29.3302L108.597 49.7391Z" fill="white"/>
</g>
<path d="M94.7929 78.0075L68.0626 73.3117L65.1728 72.7698L56.2326 71.2346C55.8714 71.1443 55.4198 71.5056 55.4198 71.9571C55.3295 72.4086 55.6005 72.8601 55.9617 72.9504L64.9019 74.4856L67.7916 75.0275L94.522 79.7233C94.8832 79.8136 95.3347 79.4524 95.3347 79.0009C95.425 78.5494 95.2444 78.0978 94.7929 78.0075Z" fill="#C1CDE6"/>
<path d="M95.8698 71.7751L85.9362 70.0593L82.595 69.4272L57.3998 65.0022C57.0386 64.9119 56.5871 65.2731 56.5871 65.7247C56.4968 66.1762 56.7677 66.6277 57.1289 66.718L82.324 71.143L85.6653 71.7751L95.5989 73.4909C95.9601 73.5812 96.4116 73.22 96.4116 72.7685C96.5019 72.3169 96.231 71.8654 95.8698 71.7751Z" fill="#C1CDE6"/>
<path d="M97.1361 65.4528L94.5172 65.0013L91.8984 64.5498L58.3049 58.6799C57.9436 58.5896 57.4921 58.9509 57.4921 59.4024C57.4018 59.8539 57.6727 60.3054 58.0339 60.3957L91.6274 66.2656L94.5172 66.8074L96.7748 67.1686C97.1361 67.2589 97.5876 66.8977 97.5876 66.4462C97.7682 65.9947 97.5876 65.5431 97.1361 65.4528Z" fill="#C1CDE6"/>
<path d="M69.854 88.1198L68.0479 87.8489C67.6866 87.7586 67.4157 87.307 67.506 86.8555C67.5963 86.404 67.9576 86.0428 68.3188 86.1331L70.1249 86.404C70.4861 86.4943 70.757 86.9458 70.6667 87.3973C70.5764 87.9392 70.2152 88.1198 69.854 88.1198Z" fill="#C1CDE6"/>
<path d="M64.3453 87.1257L53.7795 85.3196C53.4183 85.2293 53.1474 84.7777 53.2377 84.3262C53.328 83.8747 53.6892 83.5135 54.0505 83.6038L64.6162 85.4099C64.9774 85.5002 65.2483 85.9517 65.158 86.4032C65.0677 86.9451 64.7065 87.216 64.3453 87.1257Z" fill="#C1CDE6"/>
<path d="M98.5825 59.3127L90.1841 57.8678L88.1071 57.5066L59.4804 52.4495C59.1192 52.3592 58.6676 52.7204 58.6676 53.1719C58.5773 53.6234 58.8483 54.075 59.2095 54.1653L87.8362 59.2224L89.9132 59.5836L98.2213 61.0285C98.6728 61.1188 99.034 60.7575 99.1243 60.306C99.2147 59.8545 98.9437 59.403 98.5825 59.3127Z" fill="#C1CDE6"/>
<path d="M86.737 38.8128L62.9867 34.6587C62.4449 34.5684 62.0837 34.0266 62.174 33.4848C62.2643 32.9429 62.8061 32.5817 63.348 32.672L87.0982 36.8261C87.64 36.9164 88.0012 37.4582 87.9109 38C87.8206 38.4516 87.2788 38.9031 86.737 38.8128Z" fill="#C1CDE6"/>
<path d="M71.1349 41.8878L62.0141 40.2623C61.4722 40.172 61.111 39.6301 61.2013 39.0883C61.2916 38.5465 61.8335 38.1852 62.3753 38.2755L71.4058 39.901C71.9476 39.9913 72.3089 40.5332 72.2186 41.075C72.1282 41.6168 71.5864 41.9781 71.1349 41.8878Z" fill="#C1CDE6"/>
<path d="M95.4994 29.334L93.0611 43.3313C92.6999 45.318 94.1448 47.2144 96.1315 47.5756L108.594 49.7429" fill="#C1CDE6"/>
<defs>
<filter id="filter0_dd_20611_6862" x="5.03638" y="17.6484" width="90.01" height="97.668" filterUnits="userSpaceOnUse" color-interpolation-filters="sRGB">
<feFlood flood-opacity="0" result="BackgroundImageFix"/>
<feColorMatrix in="SourceAlpha" type="matrix" values="0 0 0 0 0 0 0 0 0 0 0 0 0 0 0 0 0 0 127 0" result="hardAlpha"/>
<feOffset dy="4"/>
<feGaussianBlur stdDeviation="4.5"/>
<feColorMatrix type="matrix" values="0 0 0 0 0.397708 0 0 0 0 0.47749 0 0 0 0 0.575 0 0 0 0.15 0"/>
<feBlend mode="normal" in2="BackgroundImageFix" result="effect1_dropShadow_20611_6862"/>
<feColorMatrix in="SourceAlpha" type="matrix" values="0 0 0 0 0 0 0 0 0 0 0 0 0 0 0 0 0 0 127 0" result="hardAlpha"/>
<feOffset dy="1"/>
<feGaussianBlur stdDeviation="0.5"/>
<feComposite in2="hardAlpha" operator="out"/>
<feColorMatrix type="matrix" values="0 0 0 0 0 0 0 0 0 0 0 0 0 0 0 0 0 0 0.03 0"/>
<feBlend mode="normal" in2="effect1_dropShadow_20611_6862" result="effect2_dropShadow_20611_6862"/>
<feBlend mode="normal" in="SourceGraphic" in2="effect2_dropShadow_20611_6862" result="shape"/>
</filter>
<filter id="filter1_dd_20611_6862" x="35.4412" y="17.9434" width="82.1555" height="98.3223" filterUnits="userSpaceOnUse" color-interpolation-filters="sRGB">
<feFlood flood-opacity="0" result="BackgroundImageFix"/>
<feColorMatrix in="SourceAlpha" type="matrix" values="0 0 0 0 0 0 0 0 0 0 0 0 0 0 0 0 0 0 127 0" result="hardAlpha"/>
<feOffset dy="4"/>
<feGaussianBlur stdDeviation="4.5"/>
<feColorMatrix type="matrix" values="0 0 0 0 0.397708 0 0 0 0 0.47749 0 0 0 0 0.575 0 0 0 0.15 0"/>
<feBlend mode="normal" in2="BackgroundImageFix" result="effect1_dropShadow_20611_6862"/>
<feColorMatrix in="SourceAlpha" type="matrix" values="0 0 0 0 0 0 0 0 0 0 0 0 0 0 0 0 0 0 127 0" result="hardAlpha"/>
<feOffset dy="1"/>
<feGaussianBlur stdDeviation="0.5"/>
<feComposite in2="hardAlpha" operator="out"/>
<feColorMatrix type="matrix" values="0 0 0 0 0 0 0 0 0 0 0 0 0 0 0 0 0 0 0.03 0"/>
<feBlend mode="normal" in2="effect1_dropShadow_20611_6862" result="effect2_dropShadow_20611_6862"/>
<feBlend mode="normal" in="SourceGraphic" in2="effect2_dropShadow_20611_6862" result="shape"/>
</filter>
<linearGradient id="paint0_linear_20611_6862" x1="69.0669" y1="27.232" x2="69.0669" y2="118.982" gradientUnits="userSpaceOnUse">
<stop stop-color="#DDE6FD"/>
<stop offset="0.9999" stop-color="white"/>
<stop offset="1" stop-color="white" stop-opacity="0"/>
</linearGradient>
</defs>
</svg>
