<svg width="121" height="129" viewBox="0 0 121 129" fill="none" xmlns="http://www.w3.org/2000/svg">
<path d="M61.7171 110.001C84.9071 110.001 103.708 91.237 103.708 68.01C103.708 44.783 84.9071 26.0195 61.7171 26.0195C38.527 26.0195 19.7266 44.783 19.7266 68.01C19.7266 91.237 38.527 110.001 61.7171 110.001Z" fill="#CED7F0"/>
<path d="M88.9641 25.5898C90.3727 25.5898 91.5646 26.668 91.5646 28.1775V104.513C91.5646 105.915 90.481 107.101 88.9641 107.101H32.5123C31.1037 107.101 29.9119 106.023 29.9119 104.513V28.1775C29.9119 26.7759 30.9954 25.5898 32.5123 25.5898H88.9641Z" fill="url(#paint0_linear_20611_6268)"/>
<path d="M91.5595 33.5693V104.406C91.5595 105.808 90.4759 106.994 88.959 106.994H37.3831L32.8323 102.466L84.0831 32.2755L88.5256 30.6582L91.5595 33.5693Z" fill="url(#paint1_linear_20611_6268)"/>
<path d="M88.7423 31.5208C88.7423 31.0895 88.4172 30.6582 87.8755 30.6582H33.6991C33.2657 30.6582 32.8323 30.9817 32.8323 31.5208V101.603C32.8323 102.034 33.1573 102.466 33.6991 102.466H87.7671C88.2005 102.466 88.6339 102.142 88.6339 101.603L88.7423 31.5208Z" fill="#CED7F0"/>
<path d="M88.7416 31.5208C88.7416 31.0895 88.4165 30.6582 87.8748 30.6582H33.6984C33.265 30.6582 32.8316 30.9817 32.8316 31.5208C33.4817 59.4459 33.6984 91.0368 30.6646 99.2311L82.5655 98.4763C85.7077 84.2442 88.0915 58.6911 88.7416 31.5208Z" fill="#F1F3FA"/>
<g filter="url(#filter0_d_20611_6268)">
<path d="M88.6386 30.7617C88.6386 30.7617 88.5303 34.9667 87.23 61.8136C87.23 62.0292 87.23 62.137 87.23 62.3527C85.6047 88.6605 62.2006 94.1593 59.3834 94.4827C58.0832 94.5906 55.591 94.8062 51.1486 94.8062C45.6226 95.0218 37.1711 95.1296 23.952 95.2375C23.5186 95.2375 23.1936 94.8062 23.4103 94.3749C32.5119 76.1535 32.6203 30.8695 32.6203 30.8695L88.6386 30.7617Z" fill="white"/>
</g>
<path d="M87.1078 62.248C85.5909 88.5559 62.0783 94.0546 59.2612 94.3781C57.9609 94.4859 55.4688 94.7016 51.0264 94.7016C62.7285 89.3106 69.0129 79.6069 68.9046 72.0596C74.5389 72.4909 84.2907 72.0596 87.1078 62.248Z" fill="#F1F3FA"/>
<path d="M73.5729 25.8081V28.6114C73.5729 28.827 73.5729 28.9348 73.5729 29.1505C73.2478 30.9834 71.7309 32.4929 69.7806 32.4929H51.6857C49.7353 32.4929 48.2184 30.9834 47.8933 29.1505C47.8933 28.9348 47.8933 28.827 47.8933 28.6114V25.8081C47.8933 25.3768 48.2184 24.8377 48.7601 24.8377H57.6451C57.6451 24.6221 57.6451 24.5143 57.6451 24.4064C57.6451 22.6813 59.162 21.1719 60.8956 21.1719C62.6293 21.1719 64.1462 22.6813 64.1462 24.4064C64.1462 24.6221 64.1462 24.7299 64.1462 24.8377H73.0311C73.2478 24.9455 73.5729 25.269 73.5729 25.8081Z" fill="url(#paint2_linear_20611_6268)"/>
<path d="M60.6751 25.9135C61.542 25.9135 62.1921 25.2665 62.1921 24.404C62.1921 23.5414 61.542 22.8945 60.6751 22.8945C59.8083 22.8945 59.1582 23.5414 59.1582 24.404C59.1582 25.2665 59.9167 25.9135 60.6751 25.9135Z" fill="#F1F3FA"/>
<path d="M73.4646 29.1562C73.1395 30.9892 71.6226 32.4986 69.6722 32.4986H51.6857C49.7353 32.4986 48.2184 30.9892 47.8933 29.1562H73.4646Z" fill="#CED7F0"/>
<path d="M46.1635 61.9246C47.8972 61.9246 49.1974 60.5229 49.1974 58.9056C49.1974 57.1805 47.7888 55.8867 46.1635 55.8867C44.4299 55.8867 43.1296 57.2884 43.1296 58.9056C43.0213 60.5229 44.4299 61.9246 46.1635 61.9246Z" fill="#C9D3EC"/>
<path d="M70.2094 61.823C71.9431 61.823 73.2433 60.4214 73.2433 58.8041C73.2433 57.079 71.8347 55.7852 70.2094 55.7852C68.5841 55.7852 67.1755 57.1868 67.1755 58.8041C67.1755 60.4214 68.4758 61.823 70.2094 61.823Z" fill="#C9D3EC"/>
<path d="M61.1152 65.1602H55.2642V66.5618H61.1152V65.1602Z" fill="#C9D3EC"/>
<defs>
<filter id="filter0_d_20611_6268" x="1.34131" y="19.7617" width="109.297" height="108.477" filterUnits="userSpaceOnUse" color-interpolation-filters="sRGB">
<feFlood flood-opacity="0" result="BackgroundImageFix"/>
<feColorMatrix in="SourceAlpha" type="matrix" values="0 0 0 0 0 0 0 0 0 0 0 0 0 0 0 0 0 0 127 0" result="hardAlpha"/>
<feOffset dy="11"/>
<feGaussianBlur stdDeviation="11"/>
<feColorMatrix type="matrix" values="0 0 0 0 0.397708 0 0 0 0 0.47749 0 0 0 0 0.575 0 0 0 0.27 0"/>
<feBlend mode="normal" in2="BackgroundImageFix" result="effect1_dropShadow_20611_6268"/>
<feBlend mode="normal" in="SourceGraphic" in2="effect1_dropShadow_20611_6268" result="shape"/>
</filter>
<linearGradient id="paint0_linear_20611_6268" x1="67.6246" y1="37.1232" x2="67.6246" y2="145.689" gradientUnits="userSpaceOnUse">
<stop stop-color="#DDE6FD"/>
<stop offset="0.9999" stop-color="white"/>
<stop offset="1" stop-color="white" stop-opacity="0"/>
</linearGradient>
<linearGradient id="paint1_linear_20611_6268" x1="68.7555" y1="41.4592" x2="68.7555" y2="117.795" gradientUnits="userSpaceOnUse">
<stop stop-color="#DDE6FD"/>
<stop offset="0.9999" stop-color="white"/>
<stop offset="1" stop-color="white" stop-opacity="0"/>
</linearGradient>
<linearGradient id="paint2_linear_20611_6268" x1="63.6014" y1="22.7737" x2="63.6014" y2="34.0947" gradientUnits="userSpaceOnUse">
<stop stop-color="#DDE6FD"/>
<stop offset="0.9999" stop-color="white"/>
<stop offset="1" stop-color="white" stop-opacity="0"/>
</linearGradient>
</defs>
</svg>
